<svg width="347" height="400" viewBox="0 0 347 400" fill="none" xmlns="http://www.w3.org/2000/svg">
<path d="M177.33 7.50003L341.875 102.5L341.875 292.5L177.33 197.5L177.33 7.50003Z" fill="#3B3B3B" stroke="black" stroke-width="10"/>
<path d="M346.205 300L346.205 100L173 0L173 200L346.205 300Z" fill="black" fill-opacity="0.39"/>
<circle cx="90" cy="90" r="90" transform="matrix(0.866025 0.5 -2.20305e-08 1 181.66 15)" fill="black"/>
<circle cx="29" cy="29" r="29" transform="matrix(0.866025 0.5 -2.20305e-08 1 234.488 106.5)" fill="#F0C632"/>
<circle cx="88" cy="88" r="87.5" transform="matrix(0.866025 0.5 -2.20305e-08 1 183.392 18)" stroke="#3B3B3B"/>
<circle cx="4" cy="4" r="4" transform="matrix(0.866025 0.5 -2.20305e-08 1 256.138 144)" fill="black"/>
<path d="M331.086 108.729C327.479 102.48 321.63 99.1035 318.022 101.186C314.415 103.269 314.415 110.023 318.022 116.271C321.63 122.52 327.479 125.897 331.086 123.814C334.694 121.731 334.694 114.977 331.086 108.729ZM284.359 132.879C283.682 133.269 283.682 134.536 284.359 135.707C285.035 136.879 286.132 137.512 286.808 137.121L284.359 132.879ZM323.33 110.379L284.359 132.879L286.808 137.121L325.779 114.621L323.33 110.379Z" fill="#F0C632"/>
<path d="M4.33013 102.5L168.875 7.50003L168.875 197.5L4.33013 292.5L4.33013 102.5Z" fill="#3B3B3B" stroke="black" stroke-width="10"/>
<path d="M4.4061e-06 300L173.205 3.05176e-05L173.205 200L4.4061e-06 300Z" fill="black" fill-opacity="0.39"/>
<path d="M173.205 200L346.41 300L173.205 400L-1.14441e-05 300L173.205 200Z" fill="#8C772F"/>
</svg>
