<svg width="282" height="282" viewBox="0 0 282 282" fill="none" xmlns="http://www.w3.org/2000/svg">
<path d="M5 10C5 7.23858 7.23858 5 10 5H272C274.761 5 277 7.23858 277 10V272C277 274.761 274.761 277 272 277H10C7.23858 277 5 274.761 5 272V10Z" fill="#3B3B3B" stroke="black" stroke-width="10"/>
<circle cx="141" cy="141" r="126.9" fill="black"/>
<circle cx="141" cy="141" r="40.89" fill="#F0C632"/>
<circle cx="141" cy="141" r="123.58" stroke="#3B3B3B"/>
<circle cx="141" cy="141" r="5.64" fill="black"/>
<path d="M258.064 23.9363C251.815 17.6879 241.685 17.6879 235.436 23.9363C229.188 30.1847 229.188 40.3153 235.436 46.5637C241.685 52.8121 251.815 52.8121 258.064 46.5637C264.312 40.3153 264.312 30.1847 258.064 23.9363ZM181.179 96.5787C180.007 97.7502 180.007 99.6497 181.179 100.821C182.35 101.993 184.25 101.993 185.421 100.821L181.179 96.5787ZM244.629 33.1287L181.179 96.5787L185.421 100.821L248.871 37.3713L244.629 33.1287Z" fill="#F0C632"/>
</svg>
